<svg xmlns="http://www.w3.org/2000/svg" width="27.624" height="22.098" viewBox="0 0 27.624 22.098">
  <path id="Icon_awesome-video-slash" data-name="Icon awesome-video-slash" d="M27.358,19.774,24.984,17.94a1.36,1.36,0,0,0,1.26-1.342V5.5a1.383,1.383,0,0,0-2.175-1.114L19.338,7.654v5.922L17.957,12.51V4.827a2.063,2.063,0,0,0-2.063-2.063H5.349L1.965.148A.693.693,0,0,0,.994.268L.148,1.356a.688.688,0,0,0,.121.967L1.844,3.54,17.957,16l7.7,5.957a.693.693,0,0,0,.971-.121l.846-1.092a.684.684,0,0,0-.121-.967Zm-25.976-2.5a2.063,2.063,0,0,0,2.063,2.063H15.894a2.048,2.048,0,0,0,1.278-.453L1.382,6.678Z" transform="translate(-0.002 -0.002)" fill="#fff"/>
</svg>
