<svg xmlns="http://www.w3.org/2000/svg" width="27.33" height="21.864" viewBox="0 0 27.33 21.864">
  <path id="Icon_awesome-microphone-alt-slash" data-name="Icon awesome-microphone-alt-slash" d="M27.066,19.562l-6.728-5.2a7.439,7.439,0,0,0,.843-3.43V8.882A.683.683,0,0,0,20.5,8.2h-.683a.683.683,0,0,0-.683.683v2.05a5.311,5.311,0,0,1-.458,2.144L17.539,12.2a4.02,4.02,0,0,0,.225-1.267H15.9L14.132,9.566h3.632V8.2H14.121c-.252,0-.456-.153-.456-.342V7.175c0-.189.2-.342.456-.342h3.644V5.466H14.121c-.252,0-.456-.153-.456-.342V4.442c0-.189.2-.342.456-.342h3.644a4.1,4.1,0,1,0-8.2,0V6.037L1.942.144a.684.684,0,0,0-.959.12L.144,1.343a.683.683,0,0,0,.12.959L25.389,21.72a.683.683,0,0,0,.959-.12l.839-1.079a.684.684,0,0,0-.12-.959Zm-9.985.252H14.69V18.372a7.5,7.5,0,0,0,1.45-.345l-2.152-1.664a5.506,5.506,0,0,1-.869.009,5.53,5.53,0,0,1-4.748-4.349L6.149,10.3V10.6a7.751,7.751,0,0,0,6.491,7.759v1.458H10.249a.683.683,0,0,0-.683.683v.683a.683.683,0,0,0,.683.683h6.833a.683.683,0,0,0,.683-.683V20.5A.683.683,0,0,0,17.081,19.814Z" transform="translate(0 0)" fill="#fff"/>
</svg>
