<svg xmlns="http://www.w3.org/2000/svg" width="448.002" height="302.288" viewBox="0 0 448.002 302.288">
  <g id="Group_140" data-name="Group 140" transform="translate(-532.326 -210.498)" opacity="0.1">
    <g id="Group_139" data-name="Group 139" transform="translate(564.602 210.498)">
      <path id="Path_117" data-name="Path 117" d="M549.118,256.611c-.937-.365-.879-.309,0,0Z" transform="translate(-548.437 -164.482)" fill="#fff"/>
      <path id="Path_118" data-name="Path 118" d="M874.868,328.592c-14.092-6.2-19.537-7.222-27.23-9.955a203.247,203.247,0,0,0-4.2-43.438c-6.89-34.354-43.542-37.235-77.251-46.244-26.751-7.116-49.682-24.944-68.792-16-55.626,25.707-65.825,83.822-65.825,83.822s-7.34,20.987,80.083,60.426c87.446,39.543,128.271,6.423,128.271,6.423s.052-.116.136-.315c.982,6.577,2.763,22.206-1.7,26.543-17.878,17.323-78.354,16.125-138.12-6.319-59.861-22.394-80.63-56.277-83.477-64.573-2.821-8.3,7.2-17.6,7.2-17.6s1.344-1.807-27.462,4.738c-21.547,4.92-43.612-2.029-47.731-3.472.541.208,1.406.555,2.642,1.076,67.031,27.911,81.524,97.327,221.086,177.368,82.868,47.528,166.962,40.619,187.359-13.888C980.235,412.66,917.448,346.907,874.868,328.592Z" transform="translate(-548.095 -210.498)" fill="#fff"/>
    </g>
    <path id="Path_119" data-name="Path 119" d="M547.964,254.024c33.709,13.591,92.372,71.359,139.362,118.036,0,0-133.382-102.311-147.459-108.7C527.594,257.754,530.31,246.924,547.964,254.024Z" transform="translate(0 41.33)" fill="#fff"/>
  </g>
</svg>
