<svg xmlns="http://www.w3.org/2000/svg" xmlns:xlink="http://www.w3.org/1999/xlink" width="518" height="228" viewBox="0 0 518 228">
  <defs>
    <filter id="Rectangle_168" x="52" y="135" width="56" height="56" filterUnits="userSpaceOnUse">
      <feOffset dy="3" input="SourceAlpha"/>
      <feGaussianBlur stdDeviation="2" result="blur"/>
      <feFlood flood-color="#2b4d79" flood-opacity="0.302"/>
      <feComposite operator="in" in2="blur"/>
      <feComposite in="SourceGraphic"/>
    </filter>
    <filter id="Rectangle_168-2" x="166" y="135" width="56" height="56" filterUnits="userSpaceOnUse">
      <feOffset dy="3" input="SourceAlpha"/>
      <feGaussianBlur stdDeviation="2" result="blur-2"/>
      <feFlood flood-color="#2b4d79" flood-opacity="0.302"/>
      <feComposite operator="in" in2="blur-2"/>
      <feComposite in="SourceGraphic"/>
    </filter>
    <filter id="Rectangle_168-3" x="109" y="135" width="56" height="56" filterUnits="userSpaceOnUse">
      <feOffset dy="3" input="SourceAlpha"/>
      <feGaussianBlur stdDeviation="2" result="blur-3"/>
      <feFlood flood-color="#2b4d79" flood-opacity="0.302"/>
      <feComposite operator="in" in2="blur-3"/>
      <feComposite in="SourceGraphic"/>
    </filter>
    <filter id="Rectangle_168-4" x="109" y="78" width="56" height="56" filterUnits="userSpaceOnUse">
      <feOffset dy="3" input="SourceAlpha"/>
      <feGaussianBlur stdDeviation="2" result="blur-4"/>
      <feFlood flood-color="#2b4d79" flood-opacity="0.302"/>
      <feComposite operator="in" in2="blur-4"/>
      <feComposite in="SourceGraphic"/>
    </filter>
    <filter id="Rectangle_168-5" x="349" y="135" width="56" height="56" filterUnits="userSpaceOnUse">
      <feOffset dy="3" input="SourceAlpha"/>
      <feGaussianBlur stdDeviation="2" result="blur-5"/>
      <feFlood flood-color="#2b4d79" flood-opacity="0.302"/>
      <feComposite operator="in" in2="blur-5"/>
      <feComposite in="SourceGraphic"/>
    </filter>
    <filter id="Rectangle_168-6" x="292" y="135" width="56" height="56" filterUnits="userSpaceOnUse">
      <feOffset dy="3" input="SourceAlpha"/>
      <feGaussianBlur stdDeviation="2" result="blur-6"/>
      <feFlood flood-color="#2b4d79" flood-opacity="0.302"/>
      <feComposite operator="in" in2="blur-6"/>
      <feComposite in="SourceGraphic"/>
    </filter>
    <filter id="Rectangle_168-7" x="406" y="135" width="56" height="56" filterUnits="userSpaceOnUse">
      <feOffset dy="3" input="SourceAlpha"/>
      <feGaussianBlur stdDeviation="2" result="blur-7"/>
      <feFlood flood-color="#2b4d79" flood-opacity="0.302"/>
      <feComposite operator="in" in2="blur-7"/>
      <feComposite in="SourceGraphic"/>
    </filter>
    <filter id="Rectangle_168-8" x="349" y="78" width="56" height="56" filterUnits="userSpaceOnUse">
      <feOffset dy="3" input="SourceAlpha"/>
      <feGaussianBlur stdDeviation="2" result="blur-8"/>
      <feFlood flood-color="#2b4d79" flood-opacity="0.302"/>
      <feComposite operator="in" in2="blur-8"/>
      <feComposite in="SourceGraphic"/>
    </filter>
  </defs>
  <g id="Group_183" data-name="Group 183" transform="translate(-616 -486)">
    <g id="Group_174" data-name="Group 174">
      <rect id="Rectangle_169" data-name="Rectangle 169" width="518" height="228" rx="18" transform="translate(616 486)" fill="#e8e8e8"/>
      <g id="Group_151" data-name="Group 151" transform="translate(-39 -49)">
        <g id="Group_151-2" data-name="Group 151" transform="translate(-117 100)">
          <g transform="matrix(1, 0, 0, 1, 772, 435)" filter="url(#Rectangle_168)">
            <rect id="Rectangle_168-9" data-name="Rectangle 168" width="44" height="44" rx="8" transform="translate(58 138)" fill="#1d52cb"/>
          </g>
          <path id="Polygon_8" data-name="Polygon 8" d="M10.285,2.858a2,2,0,0,1,3.43,0l8.468,14.113A2,2,0,0,1,20.468,20H3.532a2,2,0,0,1-1.715-3.029Z" transform="translate(840 607) rotate(-90)" fill="#fff"/>
        </g>
        <g id="Group_155" data-name="Group 155" transform="translate(827 673)">
          <g transform="matrix(1, 0, 0, 1, -172, -138)" filter="url(#Rectangle_168-2)">
            <rect id="Rectangle_168-10" data-name="Rectangle 168" width="44" height="44" rx="8" transform="translate(172 138)" fill="#1d52cb"/>
          </g>
          <path id="Polygon_8-2" data-name="Polygon 8" d="M10.285,2.858a2,2,0,0,1,3.43,0l8.468,14.113A2,2,0,0,1,20.468,20H3.532a2,2,0,0,1-1.715-3.029Z" transform="translate(34 10) rotate(90)" fill="#fff"/>
        </g>
        <g id="Group_152" data-name="Group 152" transform="translate(-60 100)">
          <g transform="matrix(1, 0, 0, 1, 715, 435)" filter="url(#Rectangle_168-3)">
            <rect id="Rectangle_168-11" data-name="Rectangle 168" width="44" height="44" rx="8" transform="translate(115 138)" fill="#1d52cb"/>
          </g>
          <path id="Polygon_8-3" data-name="Polygon 8" d="M10.285,2.858a2,2,0,0,1,3.43,0l8.468,14.113A2,2,0,0,1,20.468,20H3.532a2,2,0,0,1-1.715-3.029Z" transform="translate(864 607) rotate(180)" fill="#fff"/>
        </g>
        <g id="Group_154" data-name="Group 154" transform="translate(-60 43)">
          <g transform="matrix(1, 0, 0, 1, 715, 492)" filter="url(#Rectangle_168-4)">
            <rect id="Rectangle_168-12" data-name="Rectangle 168" width="44" height="44" rx="8" transform="translate(115 81)" fill="#1d52cb"/>
          </g>
          <path id="Polygon_8-4" data-name="Polygon 8" d="M10.285,2.858a2,2,0,0,1,3.43,0l8.468,14.113A2,2,0,0,1,20.468,20H3.532a2,2,0,0,1-1.715-3.029Z" transform="translate(840 584)" fill="#fff"/>
        </g>
      </g>
      <g id="Group_152-2" data-name="Group 152" transform="translate(0 -49)">
        <g id="Group_157" data-name="Group 157" transform="translate(141 100)">
          <g transform="matrix(1, 0, 0, 1, 475, 435)" filter="url(#Rectangle_168-5)">
            <rect id="Rectangle_168-13" data-name="Rectangle 168" width="44" height="44" rx="8" transform="translate(355 138)" fill="#1d52cb"/>
          </g>
          <text id="S" transform="translate(840 578)" fill="#fff" font-size="26" font-family="SourceCodePro-Semibold, Source Code Pro" font-weight="600"><tspan x="5" y="26">S</tspan></text>
        </g>
        <g id="Group_162" data-name="Group 162" transform="translate(84 100)">
          <g transform="matrix(1, 0, 0, 1, 532, 435)" filter="url(#Rectangle_168-6)">
            <rect id="Rectangle_168-14" data-name="Rectangle 168" width="44" height="44" rx="8" transform="translate(298 138)" fill="#1d52cb"/>
          </g>
          <text id="A" transform="translate(840 578)" fill="#fff" font-size="26" font-family="SourceCodePro-Semibold, Source Code Pro" font-weight="600"><tspan x="3" y="26">A</tspan></text>
        </g>
        <g id="Group_161" data-name="Group 161" transform="translate(198 100)">
          <g transform="matrix(1, 0, 0, 1, 418, 435)" filter="url(#Rectangle_168-7)">
            <rect id="Rectangle_168-15" data-name="Rectangle 168" width="44" height="44" rx="8" transform="translate(412 138)" fill="#1d52cb"/>
          </g>
          <text id="D" transform="translate(840 578)" fill="#fff" font-size="26" font-family="SourceCodePro-Semibold, Source Code Pro" font-weight="600"><tspan x="3" y="26">D</tspan></text>
        </g>
        <g id="Group_159" data-name="Group 159" transform="translate(141 43)">
          <g transform="matrix(1, 0, 0, 1, 475, 492)" filter="url(#Rectangle_168-8)">
            <rect id="Rectangle_168-16" data-name="Rectangle 168" width="44" height="44" rx="8" transform="translate(355 81)" fill="#1d52cb"/>
          </g>
          <text id="W" transform="translate(840 579)" fill="#fff" font-size="26" font-family="SourceCodePro-Semibold, Source Code Pro" font-weight="600"><tspan x="0" y="26">W</tspan></text>
        </g>
      </g>
    </g>
    <text id="Moving" transform="translate(814 505)" font-size="26" font-family="NotoSansCJKtc-Bold, Noto Sans CJK TC" font-weight="700"><tspan x="20" y="30">Moving</tspan></text>
  </g>
</svg>
