<svg xmlns="http://www.w3.org/2000/svg" width="6.888" height="13.584" viewBox="0 0 6.888 13.584">
  <path id="Path_103" data-name="Path 103" d="M17.059,14.515h1.757c-.3-2.609,2.8-3.548,2.8-6.053,0-2.052-1.391-3.2-3.426-3.2a4.551,4.551,0,0,0-3.461,1.67l1.131,1.026a2.862,2.862,0,0,1,2.1-1.061,1.593,1.593,0,0,1,1.7,1.687C19.668,10.48,16.641,11.593,17.059,14.515Zm.9,4.331A1.364,1.364,0,0,0,19.32,17.42a1.35,1.35,0,0,0-1.357-1.409,1.336,1.336,0,0,0-1.339,1.409A1.351,1.351,0,0,0,17.963,18.846Z" transform="translate(-14.728 -5.262)" fill="#fff"/>
</svg>
