<svg xmlns="http://www.w3.org/2000/svg" width="23.056" height="21.169" viewBox="0 0 23.056 21.169">
  <g id="Group_106" data-name="Group 106" transform="translate(0 0)">
    <path id="Path_108" data-name="Path 108" d="M821.777,327a.886.886,0,0,0,.1.036,1.621,1.621,0,0,1,1.374,1.556c.009.448,0,.9,0,1.343v.242c.586,0,1.147,0,1.707,0a2.92,2.92,0,0,1,1.554.41,2.5,2.5,0,0,1,1.335,2.15c.024,1.095.014,2.19,0,3.286a1.593,1.593,0,0,1-1.557,1.544c-1,.042-2.007.01-3.042.01,0-.162,0-.318,0-.473a.579.579,0,0,0-1.158,0c0,.15,0,.3,0,.465h-4.6c0-.154,0-.31,0-.465a.579.579,0,0,0-1.158,0c0,.151,0,.3,0,.47-.086,0-.158.009-.23.009-.855,0-1.71,0-2.565,0a1.657,1.657,0,0,1-1.808-1.663q0-1.529,0-3.058a2.758,2.758,0,0,1,2.918-2.683c.553,0,1.106,0,1.685,0,0-.364,0-.706,0-1.048a5.417,5.417,0,0,1,.024-.742,1.616,1.616,0,0,1,1.352-1.351.874.874,0,0,0,.1-.036Zm-4.279,3.163h4.6c0-.5,0-.991,0-1.48,0-.429-.205-.62-.67-.622-.622,0-1.245,0-1.868,0-.5,0-.99,0-1.485,0a.524.524,0,0,0-.572.475C817.489,329.076,817.5,329.612,817.5,330.163Z" transform="translate(-808.265 -327)" fill="#fff"/>
    <path id="Path_109" data-name="Path 109" d="M1133.2,586.341a5.856,5.856,0,0,1-.235.727,2.736,2.736,0,0,1-1.87,1.515c-.07.019-.142.029-.208.042v-6.256a1.827,1.827,0,0,1,2.278,1.251.378.378,0,0,0,.035.075Z" transform="translate(-1110.142 -569.638)" fill="#fff"/>
    <path id="Path_110" data-name="Path 110" d="M811.749,550.372a3.43,3.43,0,0,0,2.117.543c.735-.014,1.471,0,2.206,0h.27v1.149c0,.131,0,.262,0,.393a.578.578,0,0,0,1.156.005c.007-.434,0-.868,0-1.3v-.233h4.6c0,.492,0,.972,0,1.453a.9.9,0,0,0,.062.342.567.567,0,0,0,.607.3.545.545,0,0,0,.484-.543c.008-.434,0-.868,0-1.3,0-.075,0-.15,0-.249.09,0,.169-.011.248-.011.825,0,1.651,0,2.476,0a3.215,3.215,0,0,0,1.862-.53c.007.08.017.137.017.193q0,3.586,0,7.173a2.759,2.759,0,0,1-2.921,2.685q-5.144,0-10.287,0a2.758,2.758,0,0,1-2.918-2.666c-.005-2.4,0-4.8,0-7.194C811.739,550.521,811.744,550.467,811.749,550.372Z" transform="translate(-808.272 -539.267)" fill="#fff"/>
    <path id="Path_111" data-name="Path 111" d="M750.046,582.4v6.283a2.591,2.591,0,0,1-1.127-.447,2.522,2.522,0,0,1-1.184-2.1c-.016-.716-.009-1.433,0-2.149a1.651,1.651,0,0,1,1.648-1.582C749.588,582.39,749.8,582.4,750.046,582.4Z" transform="translate(-747.725 -569.699)" fill="#fff"/>
  </g>
</svg>
