<svg xmlns="http://www.w3.org/2000/svg" width="62" height="62" viewBox="0 0 62 62">
  <g id="Group_134" data-name="Group 134" transform="translate(-619 -353)">
    <circle id="Ellipse_9" data-name="Ellipse 9" cx="31" cy="31" r="31" transform="translate(619 353)" fill="#939393"/>
    <path id="Path_116" data-name="Path 116" d="M5.633,25.886h5.752c-.482-4.9,5.863-6.42,5.863-11.578s-3.6-7.348-8.2-7.348a10.8,10.8,0,0,0-8.2,3.9L4.483,14.2a5.185,5.185,0,0,1,3.748-1.93A2.408,2.408,0,0,1,10.9,14.753C10.9,17.8,4.743,20.171,5.633,25.886ZM8.491,36.426a4.1,4.1,0,1,0-3.934-4.119A3.956,3.956,0,0,0,8.491,36.426Z" transform="translate(641.164 362.519)" fill="#fff"/>
  </g>
</svg>
