<svg xmlns="http://www.w3.org/2000/svg" width="24.799" height="19.839" viewBox="0 0 24.799 19.839">
  <path id="Icon_awesome-microphone-alt-slash" data-name="Icon awesome-microphone-alt-slash" d="M24.559,17.751l-6.105-4.718a6.75,6.75,0,0,0,.765-3.113V8.06a.62.62,0,0,0-.62-.62h-.62a.62.62,0,0,0-.62.62V9.92a4.819,4.819,0,0,1-.415,1.945l-1.029-.8a3.648,3.648,0,0,0,.2-1.15H14.428l-1.6-1.24h3.3V7.44H12.813c-.228,0-.413-.139-.413-.31V6.51c0-.171.185-.31.413-.31h3.306V4.96H12.813c-.228,0-.413-.139-.413-.31V4.03c0-.171.185-.31.413-.31h3.306a3.72,3.72,0,1,0-7.44,0V5.478L1.762.131a.62.62,0,0,0-.87.109l-.761.979a.62.62,0,0,0,.109.87l22.8,17.62a.62.62,0,0,0,.87-.109l.761-.979A.62.62,0,0,0,24.559,17.751Zm-9.06.229h-2.17V16.67a6.808,6.808,0,0,0,1.316-.313l-1.953-1.51a5,5,0,0,1-.789.008A5.018,5.018,0,0,1,7.6,10.909L5.58,9.35v.265a7.033,7.033,0,0,0,5.89,7.04v1.323H9.3a.62.62,0,0,0-.62.62v.62a.62.62,0,0,0,.62.62h6.2a.62.62,0,0,0,.62-.62V18.6A.62.62,0,0,0,15.5,17.979Z" transform="translate(0 0)" fill="#8e4343"/>
</svg>
