<svg xmlns="http://www.w3.org/2000/svg" width="55.374" height="44.295" viewBox="0 0 55.374 44.295">
  <path id="Icon_awesome-video-slash" data-name="Icon awesome-video-slash" d="M54.838,39.636l-4.759-3.677a2.726,2.726,0,0,0,2.526-2.691V11.031A2.773,2.773,0,0,0,48.245,8.8L38.762,15.34V27.211l-2.769-2.137V9.673a4.136,4.136,0,0,0-4.136-4.136H10.72L3.936.294A1.39,1.39,0,0,0,1.99.536l-1.7,2.18A1.378,1.378,0,0,0,.536,4.655l3.158,2.44,32.3,24.971,15.444,11.94a1.39,1.39,0,0,0,1.947-.242l1.7-2.189a1.372,1.372,0,0,0-.242-1.938Zm-52.07-5.01A4.136,4.136,0,0,0,6.9,38.762H31.858a4.105,4.105,0,0,0,2.561-.909L2.768,13.385Z" transform="translate(-0.002 -0.002)" fill="#b7b7b7"/>
</svg>
