<svg xmlns="http://www.w3.org/2000/svg" width="38.34" height="24.647" viewBox="0 0 38.34 24.647">
  <path id="Icon_ionic-md-people" data-name="Icon ionic-md-people" d="M28.391,18.145a5.136,5.136,0,1,0-5.228-5.135A5.2,5.2,0,0,0,28.391,18.145Zm-13.942,0A5.136,5.136,0,1,0,9.221,13.01,5.2,5.2,0,0,0,14.449,18.145Zm0,3.766c-4.1,0-12.2,1.968-12.2,5.991v4.621H26.9V27.9C26.9,23.878,18.545,21.91,14.449,21.91Zm13.942.942a9.3,9.3,0,0,0-1.494.085c2,1.455,2.739,2.4,2.739,4.964v4.621H40.59V27.9C40.59,23.878,32.486,22.852,28.391,22.852Z" transform="translate(-2.25 -7.875)" fill="#fff"/>
</svg>
