<svg xmlns="http://www.w3.org/2000/svg" width="21.728" height="13.968" viewBox="0 0 21.728 13.968">
  <path id="Icon_ionic-md-people" data-name="Icon ionic-md-people" d="M17.064,13.695a2.91,2.91,0,1,0-2.963-2.91A2.946,2.946,0,0,0,17.064,13.695Zm-7.9,0A2.91,2.91,0,1,0,6.2,10.785,2.945,2.945,0,0,0,9.163,13.695Zm0,2.134c-2.321,0-6.913,1.115-6.913,3.395v2.619H16.218V19.224C16.218,16.944,11.484,15.829,9.163,15.829Zm7.9.534a5.27,5.27,0,0,0-.847.048,2.892,2.892,0,0,1,1.552,2.813v2.619h6.208V19.224C23.978,16.944,19.385,16.363,17.064,16.363Z" transform="translate(-2.25 -7.875)"/>
</svg>
