<svg xmlns="http://www.w3.org/2000/svg" width="18.194" height="20.469" viewBox="0 0 18.194 20.469">
  <path id="Icon_material-bug-report" data-name="Icon material-bug-report" d="M24.194,10.186H21a6.806,6.806,0,0,0-2.07-2.229L20.783,6.1l-1.6-1.6L16.712,6.968A6.9,6.9,0,0,0,15.1,6.774a6.73,6.73,0,0,0-1.6.193L11.015,4.5l-1.6,1.6,1.842,1.854A6.894,6.894,0,0,0,9.2,10.186H6V12.46H8.377a7.548,7.548,0,0,0-.1,1.137v1.137H6v2.274H8.274v1.137a7.548,7.548,0,0,0,.1,1.137H6v2.274H9.2a6.811,6.811,0,0,0,11.8,0h3.2V19.283H21.818a7.548,7.548,0,0,0,.1-1.137V17.009h2.274V14.734H21.92V13.6a7.548,7.548,0,0,0-.1-1.137h2.377Zm-6.823,9.1H12.823V17.009h4.549Zm0-4.549H12.823V12.46h4.549Z" transform="translate(-6 -4.5)"/>
</svg>
